PathFileType	4	(X/Y/Z)	C:/Users/opensim2020/Desktop/walking_exp_matlab/subject03_walking14_straight_02.trc	
DataRate	CameraRate	NumFrames	NumMarkers	Units	OrigDataRate	OrigDataStartFrame	OrigNumFrames	
100.00	100.00	4	47	mm	100.00	1086	168	
Frame#	Time	LFHD			RFHD			LBHD			RBHD			C7			T10			CLAV			STRN			RBAK			LSHO			LUPA			LELB			LFRM			LWRA			LWRB			LFIN			RSHO			RUPA			RELB			RFRM			RWRA			RWRB			RFIN			LASI			RASI			LPSI			RPSI			LTHI			LKNE			LTIB			LANK			LHEE			LTOE			RTHI			RKNE			RTIB			RANK			RHEE			RTOE			*39			*40			*41			*42			*43			*44			*45			*46			
		X1	Y1	Z1	X2	Y2	Z2	X3	Y3	Z3	X4	Y4	Z4	X5	Y5	Z5	X6	Y6	Z6	X7	Y7	Z7	X8	Y8	Z8	X9	Y9	Z9	X10	Y10	Z10	X11	Y11	Z11	X12	Y12	Z12	X13	Y13	Z13	X14	Y14	Z14	X15	Y15	Z15	X16	Y16	Z16	X17	Y17	Z17	X18	Y18	Z18	X19	Y19	Z19	X20	Y20	Z20	X21	Y21	Z21	X22	Y22	Z22	X23	Y23	Z23	X24	Y24	Z24	X25	Y25	Z25	X26	Y26	Z26	X27	Y27	Z27	X28	Y28	Z28	X29	Y29	Z29	X30	Y30	Z30	X31	Y31	Z31	X32	Y32	Z32	X33	Y33	Z33	X34	Y34	Z34	X35	Y35	Z35	X36	Y36	Z36	X37	Y37	Z37	X38	Y38	Z38	X39	Y39	Z39	X40	Y40	Z40	X41	Y41	Z41	X42	Y42	Z42	X43	Y43	Z43	X44	Y44	Z44	X45	Y45	Z45	X46	Y46	Z46	X47	Y47	Z47	

43	0.420	-903.24219	621.33130	1606.64453	-1035.49463	630.78467	1616.32605	-902.00732	744.11102	1548.89307	-1032.57166	747.99042	1558.29626	-971.41711	762.06995	1394.08887	-975.93787	789.96014	1083.84436	-969.88629	635.95361	1323.95850	-969.40851	588.54303	1158.26550	-1075.06714	805.12946	1222.36377	-814.03967	693.62726	1355.99988	-746.39178	721.76715	1158.12830	-732.01154	726.15259	1035.63928	-723.23151	718.76581	905.51904	-745.39258	713.56812	784.10431	-698.97797	743.81458	795.87451	-700.25909	738.79315	711.74713	-1128.92346	679.16754	1351.53442	-1218.24927	616.49402	1150.85278	-1239.21240	556.82941	1056.93787	-1246.63098	477.85553	945.17438	-1213.45325	407.12976	874.72839	-1258.25732	430.83838	857.56409	-1251.99011	375.28494	808.99084	-868.74573	623.33759	918.84833	-1104.11975	636.29321	922.01953	-905.69269	788.87598	936.73511	-1054.98511	793.80493	954.67737	-811.52515	608.09906	620.24689	-856.68127	524.34064	466.87811	-842.78479	498.11157	278.64667	-870.28796	436.55182	74.56942	-902.99530	466.92822	25.97412	-907.57635	288.43079	83.01170	-1145.16541	738.90814	635.62585	-1111.26660	768.36542	457.12943	-1117.79285	867.55182	289.53174	-1074.76501	964.91553	93.95952	-1027.29590	1018.45703	73.44276	-1056.64209	835.86823	31.44967	-945.56329	712.79602	1660.59167																					 
44	0.430	-902.27502	608.13422	1605.35559	-1034.54797	617.60022	1615.36145	-901.24359	730.74542	1547.20288	-1031.79785	734.61530	1556.93079	-970.38318	748.43994	1392.83740	-974.30981	776.42773	1082.53516	-969.38599	622.12750	1322.88733	-969.24048	575.01245	1157.03430	-1073.86829	792.04169	1221.24719	-813.24390	678.97992	1354.73193	-745.60083	708.73352	1157.11206	-731.15448	714.95197	1034.65588	-721.91187	711.02472	904.44073	-743.45581	710.11279	782.74274	-696.99219	739.10388	795.59967	-699.21075	738.56641	710.84296	-1128.21130	666.13306	1350.41406	-1218.02136	602.79218	1150.43835	-1239.02991	542.14880	1057.42139	-1245.66858	459.98550	948.06665	-1211.75842	387.14432	880.23999	-1256.37659	410.33417	861.83203	-1249.82874	352.91391	815.43298	-868.64276	608.46167	917.66687	-1104.09375	624.01703	921.02673	-903.56329	774.32739	935.16248	-1052.73755	780.93365	953.13342	-809.07971	596.24750	618.42352	-856.37030	511.22021	465.93491	-841.58514	481.46976	278.32373	-868.61914	417.36728	74.89996	-901.37805	446.87149	25.72297	-904.04480	268.81467	85.52499	-1144.87073	728.04602	634.95105	-1111.34326	758.57281	456.43753	-1117.77148	861.31885	290.73013	-1074.89331	962.98334	97.30860	-1027.27686	1016.85828	78.08546	-1056.69836	835.61023	31.43547	-944.60907	699.80249	1659.35474																					 
45	0.440	-901.30176	594.91443	1604.11438	-1033.51550	604.33575	1614.41614	-900.44678	717.36383	1545.61377	-1030.93201	721.09338	1555.58948	-969.29419	734.73889	1391.58582	-972.76361	762.68787	1081.28784	-968.86621	608.33252	1321.76282	-969.00616	561.20648	1156.00610	-1072.55554	778.76221	1220.12280	-812.37177	664.22406	1353.56104	-744.72626	695.41571	1156.05078	-730.23553	703.58533	1033.83704	-720.73254	702.74493	903.55042	-742.75922	705.61530	781.22113	-695.09283	733.51007	795.55823	-698.13245	737.49255	710.38092	-1127.41479	653.06274	1349.40601	-1217.72034	589.21936	1150.03748	-1238.77405	527.87268	1057.76416	-1244.49585	442.73959	950.81696	-1210.04431	367.95172	885.59271	-1254.35571	390.61908	865.98456	-1247.58545	331.53714	821.92395	-868.42316	593.58704	916.77020	-1103.84595	611.30383	919.98578	-901.53558	759.70343	933.91034	-1050.63342	767.73822	951.61902	-808.13348	581.52734	617.96808	-855.90979	497.78867	465.37012	-840.80847	467.07001	277.23367	-867.31085	403.00223	74.09183	-900.87256	431.23404	24.47694	-901.46161	253.40323	85.67896	-1144.48682	716.71381	634.26135	-1111.46790	747.94513	455.67508	-1117.84460	854.37805	291.94937	-1075.00867	960.50946	100.89036	-1027.45569	1014.92664	83.25928	-1056.80701	835.21906	31.36771	-943.43250	686.73383	1657.67896																					 
46	0.450	-900.26227	581.72473	1603.03528	-1032.51465	591.07318	1613.55945	-899.62610	703.88519	1544.16272	-1030.15100	707.76746	1554.41345	-968.06531	721.01404	1390.45581	-971.17499	748.71381	1080.06555	-968.26813	594.39038	1320.85046	-968.62225	547.19110	1155.01611	-1071.15808	765.33917	1218.97522	-811.41138	649.39069	1352.49792	-743.79352	681.94415	1155.15576	-729.22705	691.98730	1033.23792	-719.56812	693.87909	902.83356	-741.17676	700.22412	780.64740	-693.46796	726.97821	795.66632	-697.39502	735.41107	710.28308	-1126.59204	639.89160	1348.31238	-1217.44189	575.85901	1149.72131	-1238.40149	513.97314	1058.00342	-1243.24805	426.09125	953.40314	-1208.28882	349.55463	890.71985	-1252.26404	371.80923	869.92957	-1245.30249	310.98215	828.07971	-868.10345	578.66870	916.15375	-1103.37817	598.20068	918.92596	-899.62286	744.91528	932.89545	-1048.60559	754.12567	950.24237	-808.34100	564.56506	618.41815	-854.71399	484.23636	464.73315	-839.60657	454.41083	275.72980	-866.51044	391.67944	71.90878	-899.84106	420.60226	22.61908	-900.45184	242.32471	83.01951	-1143.98633	704.87524	633.51691	-1111.59094	736.58478	454.78836	-1117.95483	846.76093	293.25113	-1075.42676	957.70099	104.97373	-1027.72949	1012.46063	88.82651	-1056.95276	834.80688	31.35104	-942.23541	673.55310	1656.33777																					 
